#!OML:ASF F:\VICON\USERDATA\INSTALL\rory3\rory3.ASF
:FULLY-SPECIFIED
:DEGREES
1967
root -2.94217 17.9164 -2.72523 6.80923 38.7564 0.375301
lowerback 5.68794 -2.97774 -5.4284
upperback 2.76243 -4.20375 -0.0827528
thorax 0.0573982 -2.14548 3.16813
lowerneck -20.7972 -7.31636 -14.3247
upperneck 25.9311 -6.47624 3.82304
head 12.7703 -3.76758 2.71693
rclavicle -1.37161e-014 7.15625e-015
rhumerus -2.80874 21.3006 -50.5284
rradius 109.645
rwrist -30.8501
rhand 8.87625 14.3719
rfingers 7.12502
rthumb 34.0597 -12.3986
lclavicle -1.37161e-014 7.15625e-015
lhumerus 0.803728 -19.641 78.1514
lradius 96.8088
lwrist 60.2937
lhand 32.6555 28.5862
lfingers 7.12502
lthumb 56.0772 45.9159
rfemur -21.4019 2.82735 22.5893
rtibia 31.4517
rfoot -13.2989 -2.45686
rtoes 15.1419
lfemur -7.96774 -4.58151 -6.98682
ltibia 32.9986
lfoot -3.14563 6.65413
ltoes -27.169
1968
root -2.95147 17.9161 -2.70837 6.76282 39.0058 0.363707
lowerback 5.60973 -3.00942 -5.20633
upperback 2.85729 -4.22669 -0.223388
thorax 0.173114 -2.15767 2.89279
lowerneck -20.8308 -7.41004 -14.2326
upperneck 25.7876 -6.68504 3.97577
head 12.7407 -3.8269 2.72129
rclavicle 1.00187e-013 -1.82882e-014
rhumerus -3.13075 20.559 -50.8525
rradius 107.688
rwrist -30.616
rhand 7.95165 13.9893
rfingers 7.12502
rthumb 33.1811 -12.9725
lclavicle 1.00187e-013 -1.82882e-014
lhumerus 1.09446 -19.9534 77.7692
lradius 95.2213
lwrist 59.9437
lhand 28.7934 29.0722
lfingers 7.12502
lthumb 52.6189 48.8029
rfemur -21.3183 2.54676 22.6946
rtibia 31.4457
rfoot -13.3078 -2.3968
rtoes 15.3314
lfemur -8.21888 -4.70231 -6.8773
ltibia 33.3642
lfoot -2.90128 6.50008
ltoes -27.1899
1969
root -2.96295 17.9152 -2.69332 6.72936 39.2586 0.42137
lowerback 5.56747 -3.03246 -5.08089
upperback 2.97948 -4.24362 -0.344473
thorax 0.305364 -2.1684 2.6922
lowerneck -21.0122 -7.51713 -14.1709
upperneck 25.7563 -6.86284 4.0787
head 12.7831 -3.88278 2.71393
rclavicle 5.82439e-014 -2.54444e-014
rhumerus -3.21608 19.7247 -51.0085
rradius 105.659
rwrist -30.8907
rhand 7.00734 13.6888
rfingers 7.12502
rthumb 32.2827 -13.46
lclavicle 5.82439e-014 -2.54444e-014
lhumerus 1.62405 -20.4029 77.3844
lradius 93.5116
lwrist 60.0719
lhand 24.6341 29.1001
lfingers 7.12502
lthumb 48.825 50.9186
rfemur -21.1911 2.35424 22.7438
rtibia 31.4053
rfoot -13.3459 -2.46893
rtoes 15.2525
lfemur -8.42536 -4.86204 -6.83235
ltibia 33.7252
lfoot -2.8079 6.40434
ltoes -27.4196
1970
root -2.97577 17.9167 -2.67918 6.68912 39.5197 0.36077
lowerback 5.49357 -3.06596 -4.98255
upperback 3.032 -4.27715 -0.349207
thorax 0.395516 -2.18686 2.62743
lowerneck -21.0309 -7.57782 -14.2164
upperneck 25.6362 -6.96406 4.19065
head 12.7552 -3.91426 2.74449
rclavicle 2.32578e-014 1.03368e-014
rhumerus -3.03585 18.8988 -50.9103
rradius 103.426
rwrist -31.7613
rhand 5.10732 12.9342
rfingers 7.12502
rthumb 30.4723 -14.5665
lclavicle 2.32578e-014 1.03368e-014
lhumerus 2.23896 -20.7586 77.0865
lradius 91.8079
lwrist 60.3141
lhand 20.8623 29.1449
lfingers 7.12502
lthumb 45.3375 52.5102
rfemur -21.1234 2.28138 22.8719
rtibia 31.3345
rfoot -13.3986 -2.59093
rtoes 15.4162
lfemur -8.73942 -4.96705 -6.66984
ltibia 34.0838
lfoot -2.69961 6.19797
ltoes -27.4619
1971
root -2.98989 17.9176 -2.66546 6.63584 39.7951 0.250939
lowerback 5.4335 -3.11327 -4.88142
upperback 3.02472 -4.3325 -0.333124
thorax 0.419189 -2.21393 2.58645
lowerneck -20.9586 -7.60269 -14.1816
upperneck 25.5481 -7.0364 4.23372
head 12.7125 -3.93621 2.7433
rclavicle -1.47101e-014 1.11319e-014
rhumerus -2.72252 18.1049 -50.8021
rradius 101.129
rwrist -33.0352
rhand 2.76046 11.69
rfingers 7.12502
rthumb 28.2316 -16.2033
lclavicle -1.47101e-014 1.11319e-014
lhumerus 2.95509 -20.9675 76.7548
lradius 90.1346
lwrist 60.6953
lhand 17.3944 29.8645
lfingers 7.12502
lthumb 42.1005 54.4208
rfemur -21.0907 2.26196 23.043
rtibia 31.2755
rfoot -13.4915 -2.82701
rtoes 15.3655
lfemur -9.09303 -4.99077 -6.44636
ltibia 34.4164
lfoot -2.46444 5.90453
ltoes -27.2481
1972
root -3.00395 17.9172 -2.65075 6.49017 40.0874 0.123719
lowerback 5.68439 -3.20126 -4.79405
upperback 2.84109 -4.46626 -0.27706
thorax 0.0982912 -2.26995 2.6246
lowerneck -20.8856 -7.56181 -14.15
upperneck 25.7366 -6.97762 4.15038
head 12.7635 -3.92314 2.71992
rclavicle -1.70955e-014 -1.66979e-014
rhumerus -2.3707 17.5763 -50.6992
rradius 98.8084
rwrist -34.6082
rhand 0.645286 9.94954
rfingers 7.12502
rthumb 26.2083 -18.2609
lclavicle -1.70955e-014 -1.66979e-014
lhumerus 3.35389 -21.1299 76.4896
lradius 88.5787
lwrist 61.4805
lhand 14.0379 30.5834
lfingers 7.12502
lthumb 38.9452 56.1191
rfemur -20.9716 2.17468 23.2502
rtibia 31.2433
rfoot -13.5905 -3.01682
rtoes 15.311
lfemur -9.33691 -5.02568 -6.21662
ltibia 34.7
lfoot -2.25396 5.73797
ltoes -27.1852
1973
root -3.01638 17.9168 -2.63657 6.3665 40.3824 0.112538
lowerback 5.6912 -3.25452 -4.9232
upperback 2.90561 -4.54045 -0.126852
thorax 0.190394 -2.31311 2.8508
lowerneck -21.1032 -7.61763 -14.3116
upperneck 25.8412 -6.94802 4.09758
head 12.8534 -3.93203 2.72566
rclavicle 1.15494e-013 -1.19271e-014
rhumerus -1.49526 16.8042 -50.2308
rradius 96.4248
rwrist -36.2827
rhand -1.96311 7.88082
rfingers 7.12502
rthumb 23.7088 -20.6769
lclavicle 1.15494e-013 -1.19271e-014
lhumerus 4.25344 -21.1958 76.3164
lradius 86.9898
lwrist 62.4349
lhand 10.927 31.2156
lfingers 7.12502
lthumb 36.005 57.5309
rfemur -20.8126 2.03192 23.3527
rtibia 31.2501
rfoot -13.7061 -3.16095
rtoes 15.0569
lfemur -9.47068 -5.15695 -6.1273
ltibia 34.9164
lfoot -2.1019 5.67255
ltoes -27.4295
1974
root -3.02734 17.9174 -2.62788 6.47568 40.6324 0.402267
lowerback 5.70572 -3.3313 -5.14319
upperback 2.93556 -4.65231 -0.131644
thorax 0.241132 -2.37303 2.97147
lowerneck -21.3115 -7.63784 -14.3685
upperneck 25.9455 -6.90362 4.0367
head 12.9339 -3.92574 2.71478
rclavicle 3.97569e-016 1.66979e-014
rhumerus -0.533539 16.0027 -49.9635
rradius 94.0299
rwrist -37.853
rhand -4.87553 6.17234
rfingers 7.12502
rthumb 20.913 -22.7204
lclavicle 3.97569e-016 1.66979e-014
lhumerus 5.24139 -21.1818 76.0568
lradius 85.4056
lwrist 63.4139
lhand 8.24139 32.0611
lfingers 7.12502
lthumb 33.4565 58.9639
rfemur -20.7333 1.902 23.1728
rtibia 31.2922
rfoot -13.808 -3.29866
rtoes 14.626
lfemur -9.5806 -5.33829 -6.32141
ltibia 35.0622
lfoot -1.84235 5.5341
ltoes -26.941
1975
root -3.03766 17.9187 -2.62044 6.55776 40.8436 0.545915
lowerback 5.69951 -3.42737 -5.13084
upperback 2.90223 -4.78043 -0.196356
thorax 0.214786 -2.43492 2.90409
lowerneck -21.4475 -7.58549 -14.3061
upperneck 26.0251 -6.82865 4.03249
head 12.9819 -3.8876 2.71509
rclavicle -7.95139e-015 -2.78299e-014
rhumerus 0.362202 15.1235 -49.9899
rradius 91.637
rwrist -39.216
rhand -7.05017 4.96104
rfingers 7.12502
rthumb 18.8226 -24.1483
lclavicle -7.95139e-015 -2.78299e-014
lhumerus 6.21046 -21.111 75.7062
lradius 83.8984
lwrist 64.4534
lhand 5.55337 33.8181
lfingers 7.12502
lthumb 30.8976 61.2391
rfemur -20.7298 1.82172 23.1085
rtibia 31.3389
rfoot -13.8996 -3.41967
rtoes 14.5206
lfemur -9.70576 -5.48659 -6.38164
ltibia 35.164
lfoot -1.74458 5.32402
ltoes -25.9226
1976
root -3.04753 17.92 -2.61359 6.53976 41.0193 0.548783
lowerback 5.66274 -3.50102 -5.02385
upperback 2.88884 -4.87178 -0.234685
thorax 0.216523 -2.47879 2.80716
lowerneck -21.5497 -7.54208 -14.1799
upperneck 26.0981 -6.77132 3.95244
head 13.0166 -3.86109 2.67278
rclavicle 3.37934e-015 -2.78299e-014
rhumerus 1.38338 14.084 -50.0618
rradius 89.184
rwrist -40.4157
rhand -8.89212 3.75478
rfingers 7.12502
rthumb 17.0503 -25.517
lclavicle 3.37934e-015 -2.78299e-014
lhumerus 7.30987 -21.0687 75.3096
lradius 82.4414
lwrist 65.5196
lhand 2.74029 35.4187
lfingers 7.12502
lthumb 28.2124 63.3151
rfemur -20.7188 1.76528 23.1697
rtibia 31.3759
rfoot -13.9765 -3.58164
rtoes 13.94
lfemur -9.79286 -5.56318 -6.33769
ltibia 35.2233
lfoot -2.48995 5.17047
ltoes -26.9081
1977
root -3.05585 17.92 -2.60774 6.57563 41.1586 0.596933
lowerback 5.52522 -3.55487 -5.01475
upperback 2.90254 -4.93489 -0.237891
thorax 0.311339 -2.51292 2.79051
lowerneck -21.6164 -7.5273 -14.1292
upperneck 26.148 -6.74659 3.9153
head 13.0438 -3.85049 2.65367
rclavicle 3.06128e-014 -3.97569e-015
rhumerus 2.60755 12.9559 -49.9875
rradius 86.7443
rwrist -41.5523
rhand -10.9084 2.33213
rfingers 7.12502
rthumb 15.1087 -27.0964
lclavicle 3.06128e-014 -3.97569e-015
lhumerus 8.54026 -21.0278 74.9686
lradius 80.9118
lwrist 66.4568
lhand 0.643073 35.8104
lfingers 7.12502
lthumb 26.2062 64.0212
rfemur -20.7194 1.70667 23.1816
rtibia 31.3972
rfoot -14.0378 -3.70599
rtoes 13.5594
lfemur -9.87964 -5.57997 -6.37282
ltibia 35.2423
lfoot -2.24786 5.44409
ltoes -25.9532
1978
root -3.06497 17.9185 -2.60351 6.60533 41.2778 0.588282
lowerback 5.41395 -3.63648 -4.97869
upperback 2.8722 -5.03709 -0.201058
thorax 0.35057 -2.56469 2.80502
lowerneck -21.7104 -7.49816 -14.2715
upperneck 26.2192 -6.67373 4.02823
head 13.0954 -3.81843 2.7333
rclavicle 5.96354e-014 -1.98785e-014
rhumerus 3.94001 11.9286 -49.916
rradius 84.3537
rwrist -42.6252
rhand -12.7201 0.980486
rfingers 7.12502
rthumb 13.363 -28.571
lclavicle 5.96354e-014 -1.98785e-014
lhumerus 9.75608 -20.8464 74.6246
lradius 79.4485
lwrist 67.6749
lhand -1.43562 36.3726
lfingers 7.12502
lthumb 24.2146 64.8638
rfemur -20.7694 1.69145 23.2357
rtibia 31.4235
rfoot -14.0919 -3.82651
rtoes 13.7441
lfemur -9.97154 -5.57013 -6.36524
ltibia 35.2166
lfoot -1.95656 5.80437
ltoes -25.5252
1979
root -3.07393 17.9194 -2.59912 6.62223 41.3302 0.64044
lowerback 5.42968 -3.68303 -4.96202
upperback 2.80207 -5.10207 -0.207124
thorax 0.272731 -2.59398 2.79628
lowerneck -21.8045 -7.47754 -14.4236
upperneck 26.3611 -6.60969 4.14099
head 13.1777 -3.79299 2.81368
rclavicle 1.31595e-013 -1.82882e-014
rhumerus 5.14031 10.9043 -49.9757
rradius 82.0818
rwrist -43.7806
rhand -14.4617 -0.164035
rfingers 7.12502
rthumb 11.6839 -29.8182
lclavicle 1.31595e-013 -1.82882e-014
lhumerus 10.9644 -20.7074 74.2434
lradius 78.0628
lwrist 69.1951
lhand -3.77299 37.3438
lfingers 7.12502
lthumb 21.9719 66.1159
rfemur -20.7616 1.68876 23.2416
rtibia 31.4446
rfoot -14.1549 -3.93147
rtoes 14.2747
lfemur -9.91869 -5.55738 -6.43007
ltibia 35.1191
lfoot -1.80068 6.08629
ltoes -24.7134
1980
root -3.0829 17.9204 -2.59766 6.67 41.3547 0.775796
lowerback 5.49896 -3.70224 -4.9446
upperback 2.74068 -5.13316 -0.272638
thorax 0.165652 -2.60498 2.72886
lowerneck -21.8143 -7.47829 -14.4308
upperneck 26.4028 -6.60511 4.13471
head 13.1967 -3.79352 2.81334
rclavicle 5.82439e-014 -6.36111e-015
rhumerus 6.32464 9.68729 -50.178
rradius 79.8542
rwrist -44.9685
rhand -15.769 -1.19309
rfingers 7.12502
rthumb 10.423 -30.9147
lclavicle 5.82439e-014 -6.36111e-015
lhumerus 12.2588 -20.603 73.8331
lradius 76.7432
lwrist 70.9286
lhand -6.06992 38.2061
lfingers 7.12502
lthumb 19.7651 67.2212
rfemur -20.7206 1.61273 23.1824
rtibia 31.4311
rfoot -14.1044 -3.97477
rtoes 14.2351
lfemur -9.7991 -5.48233 -6.57323
ltibia 34.9354
lfoot -1.88232 6.22977
ltoes -23.9921
1981
root -3.09008 17.9251 -2.5955 6.71078 41.4095 0.885593
lowerback 5.51091 -3.73736 -4.88221
upperback 2.70176 -5.17934 -0.330385
thorax 0.111369 -2.62491 2.63988
lowerneck -21.7661 -7.49272 -14.3864
upperneck 26.3384 -6.64371 4.11371
head 13.1615 -3.80793 2.79093
rclavicle 3.97569e-014 -2.3059e-014
rhumerus 7.59563 8.33755 -50.4426
rradius 77.6685
rwrist -46.0955
rhand -16.4411 -2.08997
rfingers 7.12502
rthumb 9.77462 -31.8431
lclavicle 3.97569e-014 -2.3059e-014
lhumerus 13.5427 -20.3974 73.5177
lradius 75.4605
lwrist 72.4325
lhand -8.25052 39.2225
lfingers 7.12502
lthumb 17.6678 68.4398
rfemur -20.6662 1.50821 23.1349
rtibia 31.38
rfoot -14.1354 -3.97091
rtoes 13.8871
lfemur -9.66236 -5.27522 -6.68993
ltibia 34.6508
lfoot -2.0048 6.2449
ltoes -23.497
